<svg xmlns="http://www.w3.org/2000/svg" width="720" height="720" viewBox="0 0 720 720">
  <g fill="none" stroke="#C6922F" stroke-opacity=".18" stroke-width="1.4">
    <path d="M-40 104c74-52 138-52 192 0s118 52 192 0 138-52 192 0 118 52 192 0"/>
    <path d="M-40 178c74-52 138-52 192 0s118 52 192 0 138-52 192 0 118 52 192 0"/>
    <path d="M-40 252c74-52 138-52 192 0s118 52 192 0 138-52 192 0 118 52 192 0"/>
    <path d="M-40 326c74-52 138-52 192 0s118 52 192 0 138-52 192 0 118 52 192 0"/>
    <path d="M-40 400c74-52 138-52 192 0s118 52 192 0 138-52 192 0 118 52 192 0"/>
    <path d="M-40 474c74-52 138-52 192 0s118 52 192 0 138-52 192 0 118 52 192 0"/>
    <path d="M-40 548c74-52 138-52 192 0s118 52 192 0 138-52 192 0 118 52 192 0"/>
    <path d="M-40 622c74-52 138-52 192 0s118 52 192 0 138-52 192 0 118 52 192 0"/>
  </g>
</svg>
